HIERARCHY
ROOT NOSE_ROOT
{
    OFFSET 0.0 0.0 0.0
    CHANNELS 6 Xposition Yposition Zposition Zrotation Xrotation Yrotation
    JOINT LEFT_SHOULDER
    {
        OFFSET 0.5647748811472476 0.0 0.0
        CHANNELS 3 Zrotation Xrotation Yrotation
        JOINT LEFT_ELBOW
        {
            OFFSET 0.3597729796818414 0.0 0.0
            CHANNELS 3 Zrotation Xrotation Yrotation
            JOINT LEFT_WRIST
            {
                OFFSET 0.39581236760934413 0.0 0.0
                CHANNELS 3 Zrotation Xrotation Yrotation
                JOINT LEFT_HAND_WRIST
                {
                    OFFSET 0.4147229367860473 0.0 0.0
                    CHANNELS 3 Zrotation Xrotation Yrotation
                    JOINT LEFT_THUMB_MCP
                    {
                        OFFSET 0.05057755074419427 0.0 0.0
                        CHANNELS 3 Zrotation Xrotation Yrotation
                        JOINT LEFT_THUMB_PIP
                        {
                            OFFSET 0.052031271323780326 0.0 0.0
                            CHANNELS 3 Zrotation Xrotation Yrotation
                            JOINT LEFT_THUMB_DIP
                            {
                                OFFSET 0.04236803378365635 0.0 0.0
                                CHANNELS 3 Zrotation Xrotation Yrotation
                                End Site
                                {
                                    OFFSET 0.0 0.0 0.01694721351346254
                                }
                            }
                        }
                    }
                    JOINT LEFT_INDEX_FINGER_MCP
                    {
                        OFFSET 0.10029830970292494 0.0 0.0
                        CHANNELS 3 Zrotation Xrotation Yrotation
                        JOINT LEFT_INDEX_FINGER_PIP
                        {
                            OFFSET 0.05036955411085743 0.0 0.0
                            CHANNELS 3 Zrotation Xrotation Yrotation
                            JOINT LEFT_INDEX_FINGER_DIP
                            {
                                OFFSET 0.026031120369852327 0.0 0.0
                                CHANNELS 3 Zrotation Xrotation Yrotation
                                End Site
                                {
                                    OFFSET 0.0 0.0 0.010412448147940932
                                }
                            }
                        }
                    }
                    JOINT LEFT_MIDDLE_FINGER_MCP
                    {
                        OFFSET 0.08626659004638051 0.0 0.0
                        CHANNELS 3 Zrotation Xrotation Yrotation
                        JOINT LEFT_MIDDLE_FINGER_PIP
                        {
                            OFFSET 0.05292066138593998 0.0 0.0
                            CHANNELS 3 Zrotation Xrotation Yrotation
                            JOINT LEFT_MIDDLE_FINGER_DIP
                            {
                                OFFSET 0.026119188278614945 0.0 0.0
                                CHANNELS 3 Zrotation Xrotation Yrotation
                                End Site
                                {
                                    OFFSET 0.0 0.0 0.010447675311445977
                                }
                            }
                        }
                    }
                    JOINT LEFT_RING_FINGER_MCP
                    {
                        OFFSET 0.08037300951659884 0.0 0.0
                        CHANNELS 3 Zrotation Xrotation Yrotation
                        JOINT LEFT_RING_FINGER_PIP
                        {
                            OFFSET 0.051220167874016564 0.0 0.0
                            CHANNELS 3 Zrotation Xrotation Yrotation
                            JOINT LEFT_RING_FINGER_DIP
                            {
                                OFFSET 0.025092416683080182 0.0 0.0
                                CHANNELS 3 Zrotation Xrotation Yrotation
                                End Site
                                {
                                    OFFSET 0.0 0.0 0.010036966673232074
                                }
                            }
                        }
                    }
                    JOINT LEFT_PINKY_MCP
                    {
                        OFFSET 0.08407814279320065 0.0 0.0
                        CHANNELS 3 Zrotation Xrotation Yrotation
                        JOINT LEFT_PINKY_PIP
                        {
                            OFFSET 0.04198770368988867 0.0 0.0
                            CHANNELS 3 Zrotation Xrotation Yrotation
                            JOINT LEFT_PINKY_DIP
                            {
                                OFFSET 0.02149550887916657 0.0 0.0
                                CHANNELS 3 Zrotation Xrotation Yrotation
                                End Site
                                {
                                    OFFSET 0.0 0.0 0.008598203551666628
                                }
                            }
                        }
                    }
                }
            }
        }
    }
    JOINT RIGHT_SHOULDER
    {
        OFFSET -0.5647748811472476 0.0 0.0
        CHANNELS 3 Zrotation Xrotation Yrotation
        JOINT RIGHT_ELBOW
        {
            OFFSET -0.3597729796818414 0.0 0.0
            CHANNELS 3 Zrotation Xrotation Yrotation
            JOINT RIGHT_WRIST
            {
                OFFSET -0.39581236760934413 0.0 0.0
                CHANNELS 3 Zrotation Xrotation Yrotation
                JOINT RIGHT_HAND_WRIST
                {
                    OFFSET -0.4147229367860473 0.0 0.0
                    CHANNELS 3 Zrotation Xrotation Yrotation
                    JOINT RIGHT_THUMB_MCP
                    {
                        OFFSET -0.05057755074419427 0.0 0.0
                        CHANNELS 3 Zrotation Xrotation Yrotation
                        JOINT RIGHT_THUMB_PIP
                        {
                            OFFSET -0.052031271323780326 0.0 0.0
                            CHANNELS 3 Zrotation Xrotation Yrotation
                            JOINT RIGHT_THUMB_DIP
                            {
                                OFFSET -0.04236803378365635 0.0 0.0
                                CHANNELS 3 Zrotation Xrotation Yrotation
                                End Site
                                {
                                    OFFSET 0.0 0.0 0.01694721351346254
                                }
                            }
                        }
                    }
                    JOINT RIGHT_INDEX_FINGER_MCP
                    {
                        OFFSET -0.10029830970292494 0.0 0.0
                        CHANNELS 3 Zrotation Xrotation Yrotation
                        JOINT RIGHT_INDEX_FINGER_PIP
                        {
                            OFFSET -0.05036955411085743 0.0 0.0
                            CHANNELS 3 Zrotation Xrotation Yrotation
                            JOINT RIGHT_INDEX_FINGER_DIP
                            {
                                OFFSET -0.026031120369852327 0.0 0.0
                                CHANNELS 3 Zrotation Xrotation Yrotation
                                End Site
                                {
                                    OFFSET 0.0 0.0 0.010412448147940932
                                }
                            }
                        }
                    }
                    JOINT RIGHT_MIDDLE_FINGER_MCP
                    {
                        OFFSET -0.08626659004638051 0.0 0.0
                        CHANNELS 3 Zrotation Xrotation Yrotation
                        JOINT RIGHT_MIDDLE_FINGER_PIP
                        {
                            OFFSET -0.05292066138593998 0.0 0.0
                            CHANNELS 3 Zrotation Xrotation Yrotation
                            JOINT RIGHT_MIDDLE_FINGER_DIP
                            {
                                OFFSET -0.026119188278614945 0.0 0.0
                                CHANNELS 3 Zrotation Xrotation Yrotation
                                End Site
                                {
                                    OFFSET 0.0 0.0 0.010447675311445977
                                }
                            }
                        }
                    }
                    JOINT RIGHT_RING_FINGER_MCP
                    {
                        OFFSET -0.08037300951659884 0.0 0.0
                        CHANNELS 3 Zrotation Xrotation Yrotation
                        JOINT RIGHT_RING_FINGER_PIP
                        {
                            OFFSET -0.051220167874016564 0.0 0.0
                            CHANNELS 3 Zrotation Xrotation Yrotation
                            JOINT RIGHT_RING_FINGER_DIP
                            {
                                OFFSET -0.025092416683080182 0.0 0.0
                                CHANNELS 3 Zrotation Xrotation Yrotation
                                End Site
                                {
                                    OFFSET 0.0 0.0 0.010036966673232074
                                }
                            }
                        }
                    }
                    JOINT RIGHT_PINKY_MCP
                    {
                        OFFSET -0.08407814279320065 0.0 0.0
                        CHANNELS 3 Zrotation Xrotation Yrotation
                        JOINT RIGHT_PINKY_PIP
                        {
                            OFFSET -0.04198770368988867 0.0 0.0
                            CHANNELS 3 Zrotation Xrotation Yrotation
                            JOINT RIGHT_PINKY_DIP
                            {
                                OFFSET -0.02149550887916657 0.0 0.0
                                CHANNELS 3 Zrotation Xrotation Yrotation
                                End Site
                                {
                                    OFFSET 0.0 0.0 0.008598203551666628
                                }
                            }
                        }
                    }
                }
            }
        }
    }
}
MOTION
Frames: 4
Frame Time: 0.03333333333333333
0.5115232765674591 0.2197500467300415 -0.9422703981399536 176.48348461906804 -14.899570886039998 -161.05769281497814 -61.20903735385168 -62.29360577518358 21.759383459163278 -75.2520882002356 -1.3277417037710821e-14 -6.218815686649713e-15 -93.2834439609658 3.4550910500416467 69.47588163182034 -59.8315333410606 -18.717669327168466 -106.73997559775844 -121.16009550428083 -89.99189715312748 -144.18398796126974 -15.882463842704427 -1.046067038558281 -0.29761471080411106 -11.131785406167378 2.5223013706027593 0.49613645365739806 -98.66627052545334 -23.1973652624006 -130.51040766339366 -13.329393547668 -2.0288029596615234 -0.48057608254136536 -9.93060199184919 -3.3941362182547974 -0.5938710561060487 -106.57060158945048 -12.039504100068305 -132.53922349660021 -5.507152210817478 -11.319319051464735 -1.0841378026522397 -176.916172176527 -25.796175074179747 -178.6569562326814 -178.96497433744568 45.8890576173133 -115.17370311956545 -4.021573301063222 16.76447837973548 1.1617249403002703 -66.72314250639299 -76.96764821256866 -66.17553659483306 139.80984267596457 31.553519663057067 -89.60672849196077 -7.066783096504995 28.81351918075463 3.4192215091354803 -17.796423776396832 -42.6069341795525 -12.259947458787572 -46.11533255301092 -76.91788642961633 -122.93587894416183 68.61117429100582 -2.6272760084432515e-15 1.7925816180129684e-15 1.5902773407317584e-15 4.4139062980501586e-32 3.1805546814635168e-15 -49.17035911484291 -28.867825037225987 -88.36384361502161 117.30791182245243 -72.70754405053009 73.48508394791666 17.65572443468722 0.9626855976993766 -0.30639534055327466 10.500041716557224 5.74713575108419 -1.0632656196072976 132.80879157147527 -40.683678750909316 85.11699596077759 9.22277773055447 18.699536203439525 -2.9799873071229395 11.625329867250569 -12.67206738797457 2.584084783894076 152.47171758806832 -37.60757202675369 98.49947166793284 142.75119127111225 83.3821823282507 -142.9355779507292 6.6390514913873515 30.018293969489633 -3.3325433937083644 -102.04538572977616 19.854147949679533 121.06072026043049 13.797833846109645 -66.54354457392547 12.696151570034043 12.78840027822707 -2.606889611303305 0.5914906499970999 -71.63735494375331 30.282888916798914 106.8721079376733 8.650889641025792 -4.376232870516091 0.6651422932261637 14.362860688655374 -23.69194791336447 5.874605789052718
0.5103271245956421 0.21789152026176453 -0.9285258531570435 177.09197235161503 -14.694636156680705 -160.70297213028186 -60.936446277052895 -62.29558377948068 21.510850925477822 -74.90340951581352 -8.074056888113351e-17 7.950976762112851e-15 -93.18166678779878 3.307969683502687 69.50645381134402 -84.6210391930548 23.054004505192527 177.48873302069745 17.627391143710735 -65.73428662022843 -0.2593268590259038 -15.761333489817996 -1.060660157106479 -0.2993437866147774 -11.00566288854389 2.5641307686833414 0.49850052004229967 -48.12206135738837 -55.07854497274333 -35.4471524203898 -13.169918017217226 -2.0647482933305827 -0.4830227829408778 -9.83537977678215 -3.4492228164999776 -0.5975950940467375 -63.757098692959936 -89.99189715312748 -48.41596043571125 -5.461383417703458 -11.461346447018151 -1.088381740931286 -176.9446657405509 -26.170605306931815 -178.65142899617157 177.93442448960045 -62.26495711652114 -160.0774884459821 -4.0344416381886665 16.504633633188618 1.1479006022829519 -66.58179742948758 -77.1168019976671 -66.0444020157965 160.67036762629124 12.323792176258603 -162.2769780966258 -7.058766882844593 28.98093516021459 3.433397118799943 -17.699561528930246 -43.02753858588585 -12.284935128567895 -46.47958664785306 -76.95180246364752 -124.12044240131476 68.56676170261954 2.102376453794766e-14 -1.433250577836346e-14 -3.1805546814635164e-15 -3.1805546814635164e-15 2.385416011097637e-15 -49.288295912093076 -25.984304639778752 -88.02609744431348 120.72554165907879 -73.03035934101175 73.50343614602815 17.259026670764957 0.5670527825042592 -0.17616909256162422 10.578141821291014 5.02895904439063 -0.9378693447612828 136.42597726670888 -40.81899944217231 85.14548593494352 9.809494833975785 12.430627612519455 -2.13145869201506 11.139905364931217 -9.186906231208189 1.8007102818282588 154.98242208757705 -37.869401226243355 97.90160782178648 9.635576777184369 71.52926932799508 -9.147819987620863 9.261537509839833 60.674467533820476 -8.091526555077428 -102.44369032948269 17.8134647841687 122.5527400088753 7.837660765644964 -58.799735386293456 6.715249443805637 12.47885065712686 -8.911742384548267 1.9635231527790737 -69.1055602497543 30.4243753966399 107.3876682771607 7.864234453465732 1.0151603236560054 -0.14021168374993442 14.451882214230771 -25.94083930537964 6.432284052068971
0.5091309726238251 0.21603299379348756 -0.9147813081741333 177.69997042617175 -14.483151101260605 -160.34429845067402 -60.66579939642393 -62.29379258052052 21.25864747583122 -74.55253073325642 1.5241464967861133e-14 3.606799359073704e-15 -93.07882172015853 3.1595298127253733 69.53906038471025 -84.89455589115724 23.00191586326871 177.41800645096657 17.27168485397051 -65.17230195918408 -0.47084775309365495 -15.636141975231535 -1.0758146989362765 -0.30108404838787417 -10.877668407148423 2.6074973832904673 0.5008852410742499 -47.6198676775863 -54.9860801183997 -35.14793858490928 -13.008967790676511 -2.101957442033386 -0.48550111001192076 -9.738855323447858 -3.506179313993317 -0.6013720961380952 -63.45018844322943 -89.99189715312748 -48.28259035954692 -5.415326522633164 -11.606787397108768 -1.0926544683965915 -176.97324184035392 -26.556171565607677 -178.64580421573845 178.16812056302794 -62.49941537546075 -160.08270666088202 -4.047538575533234 16.242990948775777 1.133882368377093 -66.40706804507896 -77.2644213214095 -65.87916085437516 160.9412641582928 11.90659567649482 -162.3477170964801 -7.051158665074905 29.142691578614592 3.4470935859264795 -17.60049998054348 -43.44951975744959 -12.306971471252877 -46.86245818575048 -76.97803057845415 -125.32591751038028 68.52379451086605 -3.1048987869448745e-15 -1.733353289163122e-15 -1.5902773407317584e-15 1.1034765745125397e-32 -7.951386703658792e-16 -49.44740132796657 -23.033137867686754 -87.69917514453903 124.26778360197376 -73.35340154488644 73.58573150366503 16.86841633780194 0.1648274252938753 -0.049979089360450306 10.666436371906503 4.353921988391961 -0.8191960010464843 140.0960499548759 -40.95615672335292 85.17291648572639 10.556007822912635 7.50830580619829 -1.3948984278707814 10.748852895928438 -6.774284246001373 1.282789050442805 157.66450508705552 -38.112193212391404 97.37081274949668 3.711347425727211 40.279291981957556 -2.401392818472386 164.84621874058465 76.1701414958673 -165.26615144618503 -102.96673132615024 15.480907026443061 123.96868380786167 4.158826844842789 -42.767635556642155 2.8266291136369293 13.16593988660779 -23.7499038399535 5.381977098449259 -66.52994421327837 30.552405548416182 107.90932236774593 7.295357646944132 7.184570455019663 -0.9172861650714927 14.775071647798537 -29.158745264547512 7.322675186046674
0.507934820652008 0.21417446732521056 -0.9010367631912232 178.30750680694482 -14.264863899652003 -159.98146686474638 -60.39698484654182 -62.28798848268782 21.002713741596086 -74.19944730958474 9.592618770838768e-15 -1.2683842760056555e-14 -92.97487713870251 3.0097583391334304 69.57376457774188 -85.16219634808527 22.94764113467536 177.33614562638587 16.925783421861578 -64.60427469652603 -0.6746986327702014 -15.506796485582578 -1.091562361281843 -0.3028353391264741 -10.747790240446793 2.6524832074529976 0.5032909161849858 -47.096467954785226 -54.892666547753485 -34.834271197444565 -12.84652529489525 -2.140497158755976 -0.48801186322755524 -9.641003650877378 -3.5651026612126606 -0.6052034221152477 -63.128206319292495 -89.99189715312748 -48.14027665752447 -5.368982880477633 -11.755752384037702 -1.096955785776557 -177.0018913880147 -26.953374435514963 -178.64007524296287 178.40309309713638 -62.71879188222316 -160.09402589791392 -4.06086931488772 15.9796104059002 1.11967121368759 -66.19630934546116 -77.41029481789218 -65.67715772801621 161.22253427876714 11.478095902531873 -162.42398257871702 -7.043945034220585 29.298184483578968 3.460247321898968 -17.499052469303354 -43.87246481721939 -12.325796709442566 -47.26310253959455 -76.99616190459493 -126.55160943588399 68.4823059019021 -1.6793287683006929e-15 8.837832287512228e-15 -1.5902773407317592e-15 -3.1805546814635176e-15 -6.361109362927035e-15 -49.64650206319674 -20.027683405938063 -87.37962223437546 127.92709646523087 -73.67671172719453 73.7371718227057 16.484005090146894 -0.2439200233961503 0.07217808418513806 10.764172196448218 3.7247458573774694 -0.7075850294012566 143.80722244681675 -41.09497871751587 85.19996822839533 11.387525003288495 3.601459373722016 -0.7248493643368987 10.411927153475641 -5.154632053033191 0.9457981512969305 160.4865080697805 -38.340235970046805 96.89665045192325 3.4732322585819384 14.040687452496181 -0.8436166087146935 176.3808221309521 35.03469661512881 -177.92047579516202 -103.6066608387479 12.85363999334543 125.2670793523523 2.8470077325458814 -17.96433370858512 0.8787425889536925 17.723699207690448 -47.518745412165664 13.262656717171998 -63.92385300795159 30.666375608804866 108.43757981123188 6.965512034012494 14.062265072080534 -1.700341806504425 15.386983640045322 -33.28191089444225 8.58787193707398
